<svg version="1.1" id="Layer_1" xmlns="http://www.w3.org/2000/svg" xmlns:xlink="http://www.w3.org/1999/xlink" x="0px" y="0px"
	 width="100%" viewBox="0 0 649 741" enable-background="new 0 0 649 741" xml:space="preserve">
<path fill="#FFFFFF" opacity="1.000000" stroke="none" 
	d="
M356.000000,742.000000 
	C237.333328,742.000000 119.166664,742.000000 1.000000,742.000000 
	C1.000000,495.000000 1.000000,248.000000 1.000000,1.000000 
	C217.333328,1.000000 433.666656,1.000000 650.000000,1.000000 
	C650.000000,248.000000 650.000000,495.000000 650.000000,742.000000 
	C552.166687,742.000000 454.333344,742.000000 356.000000,742.000000 
M561.083923,586.126953 
	C561.083923,586.126953 561.155518,586.221252 561.699158,586.062195 
	C561.853821,585.728027 562.008545,585.393921 562.074707,585.056458 
	C562.074707,585.056458 562.100586,585.141174 562.612793,584.807312 
	C562.839783,584.255554 563.066833,583.703796 563.178101,583.087646 
	C563.178101,583.087646 563.161072,583.218933 563.704895,583.062683 
	C563.846680,582.722473 563.988403,582.382202 564.048218,582.038452 
	C564.048218,582.038452 564.071899,582.117065 564.575317,581.744629 
	C564.863220,581.193726 565.151123,580.642883 565.813110,579.857666 
	C565.906067,579.446228 565.999023,579.034729 566.688843,578.290283 
	C566.853638,577.876831 567.018372,577.463440 567.082520,577.062683 
	C567.082520,577.062683 567.125977,577.154358 567.634888,576.815979 
	C567.853516,576.259399 568.072144,575.702820 568.182556,575.066406 
	C568.182556,575.066406 568.134277,575.191895 568.716003,575.021667 
	C568.869751,574.655701 569.023499,574.289673 569.247986,573.789429 
	C569.247986,573.789429 569.161987,573.664490 569.764404,573.341736 
	C570.197083,572.557678 570.629761,571.773621 571.209656,570.806335 
	C571.209656,570.806335 571.077820,570.611755 571.720215,570.228699 
	C571.897827,569.771423 572.075378,569.314148 572.266785,568.662231 
	C572.266785,568.662231 572.078735,568.609863 572.763245,568.258423 
	C572.935913,567.781433 573.108582,567.304443 573.285828,566.704651 
	C573.285828,566.704651 573.170715,566.661804 573.806030,566.303894 
	C574.663208,564.566528 575.520447,562.829163 576.849915,560.625244 
	C579.042603,555.975098 581.389709,551.390686 583.402466,546.663940 
	C595.057617,519.292847 601.178284,490.775879 601.024170,460.035919 
	C601.034424,394.387634 601.051514,328.739380 601.013123,263.091125 
	C601.012207,261.536011 600.390259,259.981293 599.790833,257.858734 
	C599.181030,257.294830 598.586914,256.712921 597.959351,256.169556 
	C511.330872,181.158264 424.700714,106.148865 338.068054,31.142397 
	C327.524750,22.014027 316.967163,12.902137 306.248993,3.638074 
	C303.936768,5.598842 301.901306,7.293737 299.899200,9.027206 
	C218.177902,79.783325 136.449799,150.531586 54.750420,221.312988 
	C40.788769,233.408859 26.951492,245.648300 12.324371,258.190094 
	C11.975091,260.259064 11.320797,262.327881 11.320070,264.397003 
	C11.271915,401.391846 11.276430,538.386719 11.278024,675.381592 
	C11.278040,676.714661 11.145497,678.076782 11.387461,679.366699 
	C11.487313,679.899109 12.413904,680.276367 13.889215,680.910217 
	C136.358398,680.923950 258.827637,680.997314 381.296753,680.910400 
	C412.680298,680.888123 442.816376,674.535583 471.346985,661.289856 
	C480.219391,657.170715 488.815796,652.457031 497.996857,647.782166 
	C528.663513,678.477539 559.487122,709.330078 589.574951,739.446167 
	C609.071167,719.962830 628.328796,700.717896 647.720764,681.338745 
	C647.269104,680.855286 646.397400,679.864990 645.466431,678.933777 
	C628.737488,662.201477 612.021729,645.455872 595.259827,628.756592 
	C583.583435,617.123840 571.841614,605.556763 559.852295,593.422668 
	C559.252502,592.891113 558.652771,592.359558 558.117615,591.414917 
	C558.236328,591.136719 558.220215,590.866516 558.675171,590.268494 
	C558.904480,589.874390 559.133789,589.480286 559.765503,588.880493 
	C559.879761,588.467896 559.994080,588.055359 560.730713,587.341797 
	C560.885681,586.923767 561.040649,586.505798 561.083923,586.126953 
z"/>
<path fill="#AC9055" opacity="1.000000" stroke="none" 
	d="
M600.902832,460.960846 
	C601.178284,490.775879 595.057617,519.292847 583.402466,546.663940 
	C581.389709,551.390686 579.042603,555.975098 576.241638,560.942749 
	C574.812439,563.060791 573.991577,564.861328 573.170715,566.661804 
	C573.170715,566.661804 573.285828,566.704651 572.971069,566.979126 
	C572.463806,567.705688 572.271301,568.157776 572.078735,568.609863 
	C572.078735,568.609863 572.266785,568.662231 571.950073,568.964844 
	C571.448120,569.715515 571.262939,570.163635 571.077820,570.611755 
	C571.077820,570.611755 571.209656,570.806335 570.758789,570.967468 
	C569.925964,571.973938 569.544006,572.819214 569.161987,573.664490 
	C569.161987,573.664490 569.247986,573.789429 568.953613,573.990356 
	C568.484253,574.524841 568.309265,574.858337 568.134277,575.191895 
	C568.134277,575.191895 568.182556,575.066406 567.915771,575.199219 
	C567.474670,575.939453 567.300293,576.546875 567.125977,577.154358 
	C567.125977,577.154358 567.082520,577.062683 566.828186,577.214233 
	C566.413269,577.784973 566.252686,578.204163 566.092041,578.623291 
	C565.999023,579.034729 565.906067,579.446228 565.295410,580.071655 
	C564.542419,580.896179 564.307129,581.506592 564.071899,582.117065 
	C564.071899,582.117065 564.048218,582.038452 563.833801,582.145752 
	C563.466614,582.574951 563.313843,582.896973 563.161072,583.218933 
	C563.161072,583.218933 563.178101,583.087646 562.915039,583.209229 
	C562.468201,583.934265 562.284424,584.537720 562.100586,585.141174 
	C562.100586,585.141174 562.074707,585.056458 561.855347,585.154175 
	C561.475769,585.574951 561.315613,585.898071 561.155518,586.221252 
	C561.155518,586.221252 561.083923,586.126953 560.831665,586.256409 
	C560.422363,586.804810 560.265381,587.223816 560.108398,587.642761 
	C559.994080,588.055359 559.879761,588.467896 559.230835,589.114014 
	C558.487183,589.766479 558.278259,590.185425 558.069336,590.604309 
	C558.220215,590.866516 558.236328,591.136719 558.109192,591.969604 
	C558.776855,593.002991 559.452942,593.481689 560.129028,593.960327 
	C571.841614,605.556763 583.583435,617.123840 595.259827,628.756592 
	C612.021729,645.455872 628.737488,662.201477 645.466431,678.933777 
	C646.397400,679.864990 647.269104,680.855286 647.720764,681.338745 
	C628.328796,700.717896 609.071167,719.962830 589.574951,739.446167 
	C559.487122,709.330078 528.663513,678.477539 497.996857,647.782166 
	C488.815796,652.457031 480.219391,657.170715 471.346985,661.289856 
	C442.816376,674.535583 412.680298,680.888123 381.296753,680.910400 
	C258.827637,680.997314 136.358398,680.923950 13.436115,680.367676 
	C12.988665,617.398499 12.989789,554.971863 13.001105,492.545197 
	C13.015288,414.303925 13.037825,336.062683 13.056755,257.821411 
	C26.951492,245.648300 40.788769,233.408859 54.750420,221.312988 
	C136.449799,150.531586 218.177902,79.783325 299.899200,9.027206 
	C301.901306,7.293737 303.936768,5.598842 306.248993,3.638074 
	C316.967163,12.902137 327.524750,22.014027 338.068054,31.142397 
	C424.700714,106.148865 511.330872,181.158264 597.959351,256.169556 
	C598.586914,256.712921 599.181030,257.294830 599.910095,258.651611 
	C600.019592,325.041626 600.003418,390.638763 600.037781,456.235840 
	C600.038635,457.811005 600.601868,459.385834 600.902832,460.960846 
M92.540054,297.484924 
	C92.359993,298.946899 92.022690,300.408844 92.022316,301.870850 
	C91.997505,398.954681 91.993668,496.038483 92.050644,593.122314 
	C92.051636,594.815857 92.813049,596.509033 93.524055,598.327026 
	C93.709854,598.461304 93.831726,598.639282 94.458702,599.515076 
	C95.928246,599.676697 97.397743,599.979431 98.867332,599.979919 
	C194.607773,600.011841 290.348206,600.026611 386.088623,599.967285 
	C387.711517,599.966248 389.333832,599.042175 391.580994,598.208130 
	C396.989685,597.444946 402.467590,597.005188 407.795776,595.865417 
	C439.283508,589.129944 465.803436,574.025696 486.548920,549.075989 
	C504.735992,527.203125 515.064514,502.101196 519.045532,473.726471 
	C519.059631,469.495605 519.073669,465.264771 518.937500,460.102631 
	C518.927490,407.937408 518.848511,355.771942 519.020142,303.607300 
	C519.036377,298.688477 517.684937,295.437592 513.917847,292.188965 
	C454.101013,240.605209 394.419983,188.863907 334.703888,137.163345 
	C325.285126,129.008820 315.846497,120.877197 306.296600,112.630959 
	C304.858673,113.804558 303.688721,114.711349 302.571045,115.678581 
	C263.509216,149.483322 224.440826,183.280518 185.398315,217.107574 
	C154.670654,243.730515 123.975761,270.391266 92.540054,297.484924 
z"/>
<path fill="#A3833B" opacity="1.000000" stroke="none" 
	d="
M12.690563,258.005737 
	C13.037825,336.062683 13.015288,414.303925 13.001105,492.545197 
	C12.989789,554.971863 12.988665,617.398499 12.973747,680.274658 
	C12.413904,680.276367 11.487313,679.899109 11.387461,679.366699 
	C11.145497,678.076782 11.278040,676.714661 11.278024,675.381592 
	C11.276430,538.386719 11.271915,401.391846 11.320070,264.397003 
	C11.320797,262.327881 11.975091,260.259064 12.690563,258.005737 
z"/>
<path fill="#A5853B" opacity="1.000000" stroke="none" 
	d="
M600.963501,460.498383 
	C600.601868,459.385834 600.038635,457.811005 600.037781,456.235840 
	C600.003418,390.638763 600.019592,325.041626 600.043701,258.935455 
	C600.390259,259.981293 601.012207,261.536011 601.013123,263.091125 
	C601.051514,328.739380 601.034424,394.387634 600.963501,460.498383 
z"/>
<path fill="#A98B45" opacity="1.000000" stroke="none" 
	d="
M573.488403,566.482849 
	C573.991577,564.861328 574.812439,563.060791 576.005493,561.176025 
	C575.520447,562.829163 574.663208,564.566528 573.488403,566.482849 
z"/>
<path fill="#A98B45" opacity="1.000000" stroke="none" 
	d="
M569.463196,573.503113 
	C569.544006,572.819214 569.925964,571.973938 570.685181,571.059082 
	C570.629761,571.773621 570.197083,572.557678 569.463196,573.503113 
z"/>
<path fill="#A98B45" opacity="1.000000" stroke="none" 
	d="
M559.990662,593.691528 
	C559.452942,593.481689 558.776855,593.002991 558.076904,592.176147 
	C558.652771,592.359558 559.252502,592.891113 559.990662,593.691528 
z"/>
<path fill="#A98B45" opacity="1.000000" stroke="none" 
	d="
M567.380432,576.985168 
	C567.300293,576.546875 567.474670,575.939453 567.969849,575.239136 
	C568.072144,575.702820 567.853516,576.259399 567.380432,576.985168 
z"/>
<path fill="#A98B45" opacity="1.000000" stroke="none" 
	d="
M564.323608,581.930847 
	C564.307129,581.506592 564.542419,580.896179 565.108337,580.188843 
	C565.151123,580.642883 564.863220,581.193726 564.323608,581.930847 
z"/>
<path fill="#A98B45" opacity="1.000000" stroke="none" 
	d="
M562.356689,584.974243 
	C562.284424,584.537720 562.468201,583.934265 562.972900,583.241455 
	C563.066833,583.703796 562.839783,584.255554 562.356689,584.974243 
z"/>
<path fill="#A98B45" opacity="1.000000" stroke="none" 
	d="
M572.421021,568.434143 
	C572.271301,568.157776 572.463806,567.705688 572.968872,567.040527 
	C573.108582,567.304443 572.935913,567.781433 572.421021,568.434143 
z"/>
<path fill="#A98B45" opacity="1.000000" stroke="none" 
	d="
M571.399048,570.420227 
	C571.262939,570.163635 571.448120,569.715515 571.943115,569.062134 
	C572.075378,569.314148 571.897827,569.771423 571.399048,570.420227 
z"/>
<path fill="#A98B45" opacity="1.000000" stroke="none" 
	d="
M568.425171,575.106812 
	C568.309265,574.858337 568.484253,574.524841 568.918274,574.057495 
	C569.023499,574.289673 568.869751,574.655701 568.425171,575.106812 
z"/>
<path fill="#A98B45" opacity="1.000000" stroke="none" 
	d="
M566.390503,578.456787 
	C566.252686,578.204163 566.413269,577.784973 566.878479,577.207886 
	C567.018372,577.463440 566.853638,577.876831 566.390503,578.456787 
z"/>
<path fill="#A98B45" opacity="1.000000" stroke="none" 
	d="
M563.432983,583.140808 
	C563.313843,582.896973 563.466614,582.574951 563.874756,582.147461 
	C563.988403,582.382202 563.846680,582.722473 563.432983,583.140808 
z"/>
<path fill="#A98B45" opacity="1.000000" stroke="none" 
	d="
M561.427307,586.141724 
	C561.315613,585.898071 561.475769,585.574951 561.899536,585.155762 
	C562.008545,585.393921 561.853821,585.728027 561.427307,586.141724 
z"/>
<path fill="#A98B45" opacity="1.000000" stroke="none" 
	d="
M560.419556,587.492310 
	C560.265381,587.223816 560.422363,586.804810 560.887512,586.236816 
	C561.040649,586.505798 560.885681,586.923767 560.419556,587.492310 
z"/>
<path fill="#A98B45" opacity="1.000000" stroke="none" 
	d="
M558.372253,590.436401 
	C558.278259,590.185425 558.487183,589.766479 559.029541,589.216919 
	C559.133789,589.480286 558.904480,589.874390 558.372253,590.436401 
z"/>
<path fill="#FFFFFF" opacity="1.000000" stroke="none" 
	d="
M518.315308,473.959167 
	C515.064514,502.101196 504.735992,527.203125 486.548920,549.075989 
	C465.803436,574.025696 439.283508,589.129944 407.795776,595.865417 
	C402.467590,597.005188 396.989685,597.444946 390.801392,598.387939 
	C385.196655,598.664734 380.371521,598.845520 375.546326,598.846375 
	C281.660767,598.863831 187.775223,598.860291 93.889671,598.861023 
	C93.831726,598.639282 93.709854,598.461304 93.411591,597.777588 
	C93.288177,497.163879 93.277245,397.099548 93.266312,297.035217 
	C123.975761,270.391266 154.670654,243.730515 185.398315,217.107574 
	C224.440826,183.280518 263.509216,149.483322 302.571045,115.678581 
	C303.688721,114.711349 304.858673,113.804558 306.296600,112.630959 
	C315.846497,120.877197 325.285126,129.008820 334.703888,137.163345 
	C394.419983,188.863907 454.101013,240.605209 513.917847,292.188965 
	C517.684937,295.437592 519.036377,298.688477 519.020142,303.607300 
	C518.848511,355.771942 518.927490,407.937408 518.949646,461.016296 
	C518.746277,465.939697 518.530762,469.949432 518.315308,473.959167 
M216.261765,304.021210 
	C216.146408,305.839294 215.930832,307.657349 215.930252,309.475464 
	C215.912460,365.635803 215.913895,421.796112 215.924240,477.956451 
	C215.924561,479.617554 216.052338,481.278625 216.488297,483.706024 
	C217.643646,483.788849 218.798996,483.943878 219.954361,483.944092 
	C276.997467,483.955872 334.040558,483.956116 391.083649,483.943665 
	C392.406494,483.943359 393.729248,483.783722 395.804443,483.647186 
	C396.071320,482.748260 396.571228,481.849487 396.571808,480.950378 
	C396.608765,423.084259 396.616974,365.218048 396.531006,307.352051 
	C396.529053,306.035919 395.420044,304.721405 394.071228,303.203857 
	C337.895203,303.200592 281.719177,303.191162 225.543167,303.212158 
	C222.737335,303.213226 219.931595,303.478088 216.261765,304.021210 
z"/>
<path fill="#9E7C22" opacity="1.000000" stroke="none" 
	d="
M92.903183,297.260071 
	C93.277245,397.099548 93.288177,497.163879 93.259384,597.715332 
	C92.813049,596.509033 92.051636,594.815857 92.050644,593.122314 
	C91.993668,496.038483 91.997505,398.954681 92.022316,301.870850 
	C92.022690,300.408844 92.359993,298.946899 92.903183,297.260071 
z"/>
<path fill="#A17F28" opacity="1.000000" stroke="none" 
	d="
M94.174187,599.188049 
	C187.775223,598.860291 281.660767,598.863831 375.546326,598.846375 
	C380.371521,598.845520 385.196655,598.664734 390.489136,598.558289 
	C389.333832,599.042175 387.711517,599.966248 386.088623,599.967285 
	C290.348206,600.026611 194.607773,600.011841 98.867332,599.979919 
	C97.397743,599.979431 95.928246,599.676697 94.174187,599.188049 
z"/>
<path fill="#A6873E" opacity="1.000000" stroke="none" 
	d="
M518.680420,473.842834 
	C518.530762,469.949432 518.746277,465.939697 519.024780,461.481934 
	C519.073669,465.264771 519.059631,469.495605 518.680420,473.842834 
z"/>
<path fill="#AC9056" opacity="1.000000" stroke="none" 
	d="
M395.052063,483.698425 
	C393.729248,483.783722 392.406494,483.943359 391.083649,483.943665 
	C334.040558,483.956116 276.997467,483.955872 219.954361,483.944092 
	C218.798996,483.943878 217.643646,483.788849 216.583588,483.021851 
	C216.786133,480.520935 216.986404,478.704193 216.987137,476.887390 
	C217.009933,419.596649 217.013351,362.305908 217.487122,305.010437 
	C276.957031,305.012054 335.959503,305.018463 394.974121,305.491821 
	C395.008209,365.205322 395.030121,424.451874 395.052063,483.698425 
z"/>
<path fill="#A18031" opacity="1.000000" stroke="none" 
	d="
M395.428223,483.672791 
	C395.030121,424.451874 395.008209,365.205322 394.961548,305.085266 
	C394.900330,303.943237 394.863892,303.674683 394.827423,303.406158 
	C395.420044,304.721405 396.529053,306.035919 396.531006,307.352051 
	C396.616974,365.218048 396.608765,423.084259 396.571808,480.950378 
	C396.571228,481.849487 396.071320,482.748260 395.428223,483.672791 
z"/>
<path fill="#A68847" opacity="1.000000" stroke="none" 
	d="
M394.449341,303.304993 
	C394.863892,303.674683 394.900330,303.943237 394.949402,304.618317 
	C335.959503,305.018463 276.957031,305.012054 217.498322,304.660431 
	C217.070023,304.083496 217.097916,303.851807 217.125809,303.620148 
	C219.931595,303.478088 222.737335,303.213226 225.543167,303.212158 
	C281.719177,303.191162 337.895203,303.200592 394.449341,303.304993 
z"/>
<path fill="#A38333" opacity="1.000000" stroke="none" 
	d="
M216.693787,303.820679 
	C217.097916,303.851807 217.070023,304.083496 217.030914,304.665161 
	C217.013351,362.305908 217.009933,419.596649 216.987137,476.887390 
	C216.986404,478.704193 216.786133,480.520935 216.399780,482.638733 
	C216.052338,481.278625 215.924561,479.617554 215.924240,477.956451 
	C215.913895,421.796112 215.912460,365.635803 215.930252,309.475464 
	C215.930832,307.657349 216.146408,305.839294 216.693787,303.820679 
z"/>
</svg>